<svg width="16" height="16" viewBox="0 0 16 16" fill="none" xmlns="http://www.w3.org/2000/svg">
    <path
        d="M6.30957 4.5374C6.30957 4.97059 6.47251 5.36546 6.74035 5.6644H9.25969C9.52754 5.36546 9.6906 4.97059 9.6906 4.5374C9.6906 3.95177 9.39254 3.43577 8.94007 3.13224L9.19807 2.6053C9.28601 2.5913 9.36607 2.53652 9.4081 2.45068C9.47641 2.31096 9.4186 2.14212 9.27879 2.07377C9.13904 2.00521 8.9702 2.06302 8.90198 2.20296C8.85248 2.30393 8.86923 2.41959 8.93485 2.50212L8.69329 2.99577C8.48173 2.90052 8.17691 2.84216 7.92988 2.84216C7.68263 2.84216 7.51841 2.90052 7.30676 2.99577L7.06532 2.50212C7.13091 2.41955 7.14766 2.30393 7.09829 2.20296C7.02985 2.06302 6.8611 2.00521 6.72138 2.07377C6.58154 2.14212 6.5236 2.31096 6.59207 2.45068C6.63413 2.53652 6.71416 2.5913 6.8021 2.6053L7.0601 3.13224C6.60741 3.43577 6.30957 3.95177 6.30957 4.5374Z"
        fill="#7E22CE" />
    <path
        d="M6.24545 5.89479C6.24545 5.89479 2.05469 3.08351 0.666504 2.84216C0.749723 3.26748 2.00065 7.19304 2.00065 7.0065C2.00065 7.05269 6.24545 5.89479 6.24545 5.89479Z"
        fill="#7E22CE" />
    <path
        d="M6.32834 6.62305C5.99206 6.79123 2.81062 7.63948 2.81062 7.63948L2.26562 9.93098L4.54659 10.2529C4.54659 10.2529 6.19672 7.73039 6.30413 7.19405C6.33469 7.04092 6.32834 6.62305 6.32834 6.62305Z"
        fill="#7E22CE" />
    <path
        d="M9.75466 6.80713C10.0909 6.97532 13.2724 7.82357 13.2724 7.82357L13.8174 10.1151L11.5364 10.437C11.5364 10.437 9.88629 7.91447 9.77888 7.37813C9.74832 7.225 9.75466 6.80713 9.75466 6.80713Z"
        fill="#7E22CE" />
    <path
        d="M9.18727 5.98633H6.81246C6.72352 5.98633 6.65137 6.05858 6.65137 6.14752V7.1738C6.65137 7.26273 6.72352 7.33498 6.81246 7.33498H9.18727C9.27609 7.33498 9.34824 7.26273 9.34824 7.1738V6.14752C9.34824 6.05858 9.27609 5.98633 9.18727 5.98633Z"
        fill="#7E22CE" />
    <path
        d="M6.79198 7.71741C6.68742 7.81684 6.36295 8.31116 6.14404 8.96509H9.85548C9.63657 8.31113 9.3121 7.81684 9.20754 7.71741H6.79198Z"
        fill="#7E22CE" />
    <path
        d="M5.95333 9.81018C5.92617 10.0552 5.92442 10.3076 5.96002 10.5586C5.98552 10.7381 6.02286 10.9039 6.06877 11.0581H9.93152C9.97752 10.9039 10.0146 10.7381 10.04 10.5586C10.0756 10.3076 10.0739 10.0553 10.0467 9.81018H5.95333Z"
        fill="#7E22CE" />
    <path
        d="M7.80396 12.8862L7.95058 13.8759C7.95736 13.9215 7.99658 13.9552 8.04277 13.9552C8.08899 13.9552 8.1283 13.9215 8.13496 13.8759L8.28639 12.8534C8.60418 12.7314 9.12464 12.4605 9.52333 11.9033H6.47705C6.91643 12.5168 7.50314 12.7837 7.80396 12.8862Z"
        fill="#7E22CE" />
    <path
        d="M9.68424 5.92983C9.68424 5.92983 13.875 3.11854 15.2632 2.8772C15.18 3.30251 13.929 7.22807 13.929 7.04154C13.929 7.08772 9.68424 5.92983 9.68424 5.92983Z"
        fill="#7E22CE" />
</svg>